# xmcd CD database file
#
# Track frame offsets:
#	150
#	13180
#	25320
#	39673
#	54200
#	68400
#	82418
#	95628
#	109303
#	119510
#	131215
#	144335
#	157233
#	171035
#	185085
#	199945
#	226335
#	257178
#	278308
#	300763
#
# Disc length: 4240 seconds
#
# Revision: 2
# Processed by: cddbd v1.5PL3 Copyright (c) Steve Scherf et al.
# Submitted via: CDex 1.51
#
DISCID=1c108e14
DTITLE=Various Artist - The 1st Note in Black Music  [disc 2]
DYEAR=1992
DGENRE=Blues
TTITLE0=Black and Tan Fantasy - Duke Ellington (1945)
TTITLE1=St. Louis Blues - Louis Armstrong (1933)
TTITLE2=Too Late - King Oliver (1929)
TTITLE3=Black Bottom Stomp - Jelly Roll Morton (1926)
TTITLE4=Indian Summer - Sidney Bechet (1940)
TTITLE5=Sugar Foot Stomp - Fletcher henderson (1931)
TTITLE6=Everybody Loves My Baby - ''Fats'' Waller (1940)
TTITLE7=Body and Soul - Coleman Hawkins (1939)
TTITLE8=Hot Mallets - Lionel Hampton (1939)
TTITLE9=Piano Man - Earl Hines (1939)
TTITLE10=Brand New Wagon - Count Basie w-Jimmy Rushing (1947)
TTITLE11=Out of Nowhere - Art Tatum (1947)
TTITLE12=Cocktails for Two - Benny Carter (1940)
TTITLE13=Manteca - Dizzy Gillespie (1947)
TTITLE14=Shaw 'Nuff - Bud Powell (1957)
TTITLE15=Dizzy Moods - Charles Mingus (1957)
TTITLE16=Evidence - Art Blakey (1958)
TTITLE17=Just Friends - Sonny Rollins (1963)
TTITLE18=Confidentiality - Roy Hargrove (1989)
TTITLE19=Black and Tan Fantasy - Marcus Roberts (1990)
EXTD=RCA 07863 61144-2 disc 2 YEAR: 1992
EXTT0=
EXTT1=
EXTT2=
EXTT3=
EXTT4=
EXTT5=
EXTT6=
EXTT7=
EXTT8=
EXTT9=
EXTT10=
EXTT11=
EXTT12=
EXTT13=
EXTT14=
EXTT15=
EXTT16=
EXTT17=
EXTT18=
EXTT19=
PLAYORDER=
